# File created by Blade
# Date/Time:  Wed Jan 21 16:09:38 2015
# Frame Rate: 120.000 fps
#------------------------------------------------------
:FULLY-SPECIFIED
:DEGREES
310
root 14.092244 33.480866 -21.717814 -169.283271 78.813675 -199.863323
Spine -1.612796 -6.215582 1.064171
Head 3.033545 -6.609824 0.764329
LeftShoulder -16.151068 -40.439052 25.724592
LeftArm -15.117056 3.611794 -10.509300
LeftForeArm 5.675470 0.000000 0.084848
LeftHand -11.142497 -0.000000 5.464096
LeftHandThumb1 -26.253704 0.000000 33.147579
RightShoulder -13.147130 1.583944 -16.672682
RightArm -14.454499 42.158100 12.809150
RightForeArm -31.941874 -0.000000 11.043101
RightHand -14.179464 -0.000000 -7.398782
RightHandThumb1 -24.326973 -0.000000 -32.862282
LeftUpLeg -7.401679 -0.531687 -9.359107
LeftLeg -13.650575 -0.000000 0.000000
LeftFoot -10.234718 28.663242 14.513922
LeftToeBase -137.494850 -0.000000 0.000000
RightUpLeg -50.047447 -1.873604 0.693536
RightLeg -4.664906 -0.000000 0.000000
RightFoot 8.007783 -29.380137 -0.346437
RightToeBase 26.495596 -0.000000 -0.000000
311
root 14.058193 33.479476 -21.714567 -169.469254 78.717767 -200.585771
Spine -1.283279 -6.280706 1.061391
Head 2.601992 -6.673794 0.801975
LeftShoulder -16.019041 -40.613515 25.673798
LeftArm -15.441364 3.663781 -10.590817
LeftForeArm 5.639845 -0.000000 0.137048
LeftHand -11.140967 -0.000000 5.623546
LeftHandThumb1 -26.253704 0.000000 33.147579
RightShoulder -13.083409 1.671961 -16.752306
RightArm -14.793719 42.172296 12.878861
RightForeArm -31.658002 0.000000 11.199963
RightHand -14.276544 -0.000000 -7.567681
RightHandThumb1 -24.326973 -0.000000 -32.862282
LeftUpLeg -7.942674 -0.671091 -9.495656
LeftLeg -13.689502 -0.000000 0.000000
LeftFoot -10.180486 28.589517 14.520696
LeftToeBase -137.562746 -0.000000 0.000000
RightUpLeg -50.677805 -1.970253 0.544834
RightLeg -4.572016 -0.000000 0.000000
RightFoot 8.059213 -29.358522 -0.352542
RightToeBase 26.376477 -0.000000 -0.000000
312
root 14.024696 33.477806 -21.711409 -169.705198 78.638117 -201.363387
Spine -0.940277 -6.334107 1.027958
Head 2.134623 -6.763895 0.903439
LeftShoulder -15.897119 -40.717589 25.600772
LeftArm -15.711966 3.628498 -10.639020
LeftForeArm 5.568320 -0.000000 0.235611
LeftHand -11.310189 -0.000000 5.445078
LeftHandThumb1 -26.253704 0.000000 33.147579
RightShoulder -13.060757 1.692382 -16.766069
RightArm -15.005781 42.245955 12.973389
RightForeArm -31.311654 -0.000000 11.283774
RightHand -14.345286 -0.000000 -7.774399
RightHandThumb1 -24.326973 -0.000000 -32.862282
LeftUpLeg -8.487059 -0.831604 -9.641672
LeftLeg -13.728643 -0.000000 0.000000
LeftFoot -10.124189 28.551730 14.526755
LeftToeBase -137.638909 -0.000000 0.000000
RightUpLeg -51.266897 -1.989604 0.285527
RightLeg -4.558483 -0.000000 0.000000
RightFoot 8.151074 -29.416169 -0.391332
RightToeBase 26.465208 -0.000000 -0.000000
313
root 13.990403 33.477204 -21.704990 -169.804184 78.550226 -201.989937
Spine -0.565971 -6.395375 1.030164
Head 1.666719 -6.805515 0.979235
LeftShoulder -15.822109 -40.678305 25.592789
LeftArm -16.003225 3.343742 -10.789817
LeftForeArm 5.717706 -0.000000 0.461513
LeftHand -11.347933 0.000000 5.503076
LeftHandThumb1 -26.253704 0.000000 33.147579
RightShoulder -13.033499 1.763198 -16.778145
RightArm -15.248053 42.163325 13.071942
RightForeArm -30.904621 -0.000000 11.469655
RightHand -14.537604 -0.000000 -7.993565
RightHandThumb1 -24.326973 -0.000000 -32.862282
LeftUpLeg -9.028673 -1.005602 -9.749505
LeftLeg -13.759924 -0.000000 0.000000
LeftFoot -10.035935 28.543067 14.572460
LeftToeBase -137.671413 -0.000000 0.000000
RightUpLeg -51.846008 -2.026147 0.077446
RightLeg -4.528388 -0.000000 0.000000
RightFoot 8.214329 -29.445343 -0.374431
RightToeBase 26.507232 -0.000000 -0.000000
314
root 13.953529 33.477441 -21.700672 -170.047934 78.467947 -202.753971
Spine -0.153189 -6.481841 1.016260
Head 1.160427 -6.849723 1.020876
LeftShoulder -15.818944 -40.708878 25.540578
LeftArm -16.100499 3.292946 -10.902715
LeftForeArm 5.554374 0.000000 0.426022
LeftHand -11.548579 -0.000000 5.512210
LeftHandThumb1 -26.253704 0.000000 33.147579
RightShoulder -12.932529 1.915880 -16.884969
RightArm -15.642422 42.104903 13.152936
RightForeArm -30.611470 -0.000000 11.657370
RightHand -14.580527 0.000000 -8.146299
RightHandThumb1 -24.326973 -0.000000 -32.862282
LeftUpLeg -9.582118 -1.232835 -9.873901
LeftLeg -13.742251 -0.000000 0.000000
LeftFoot -9.962216 28.544730 14.580873
LeftToeBase -137.635357 -0.000000 0.000000
RightUpLeg -52.435103 -2.110437 -0.117571
RightLeg -4.483546 -0.000000 0.000000
RightFoot 8.284691 -29.401566 -0.333591
RightToeBase 26.428368 -0.000000 -0.000000
315
root 13.917811 33.476853 -21.695473 -170.228675 78.400627 -203.422394
Spine 0.321293 -6.517479 1.000011
Head 0.628228 -6.893646 1.115479
LeftShoulder -15.732019 -40.882267 25.575201
LeftArm -16.436575 3.207104 -11.022801
LeftForeArm 5.555940 -0.000000 0.528374
LeftHand -11.647096 -0.000000 5.594015
LeftHandThumb1 -26.253704 0.000000 33.147579
RightShoulder -12.960931 1.880988 -16.903441
RightArm -15.798596 42.354803 13.316329
RightForeArm -30.495609 -0.000000 11.786791
RightHand -14.721081 -0.000000 -8.335048
RightHandThumb1 -24.326973 -0.000000 -32.862282
LeftUpLeg -10.111710 -1.419179 -9.985261
LeftLeg -13.718781 -0.000000 0.000000
LeftFoot -9.905111 28.559137 14.628814
LeftToeBase -137.688086 -0.000000 0.000000
RightUpLeg -52.981848 -2.155145 -0.326708
RightLeg -4.445208 -0.000000 0.000000
RightFoot 8.375477 -29.422536 -0.286530
RightToeBase 26.730808 -0.000000 -0.000000
316
root 13.880901 33.476331 -21.690795 -170.476182 78.336948 -204.128565
Spine 0.856636 -6.531928 0.974744
Head 0.049048 -7.002043 1.222863
LeftShoulder -15.644472 -40.910908 25.496953
LeftArm -16.587080 3.128862 -11.146783
LeftForeArm 5.350824 -0.000000 0.520218
LeftHand -11.405236 0.000000 5.586603
LeftHandThumb1 -26.253704 0.000000 33.147579
RightShoulder -13.026250 1.876155 -16.981107
RightArm -15.907723 42.700777 13.546222
RightForeArm -30.571437 0.000000 11.813382
RightHand -14.847957 -0.000000 -8.568233
RightHandThumb1 -24.326973 -0.000000 -32.862282
LeftUpLeg -10.621527 -1.607837 -10.105083
LeftLeg -13.677169 -0.000000 0.000000
LeftFoot -9.836834 28.595942 14.674974
LeftToeBase -137.581702 -0.000000 0.000000
RightUpLeg -53.513561 -2.195863 -0.568134
RightLeg -4.390064 -0.000000 0.000000
RightFoot 8.425166 -29.404092 -0.202405
RightToeBase 26.881207 -0.000000 -0.000000
